<mxfile host="app.diagrams.net" agent="Mozilla/5.0 (Windows NT 10.0; Win64; x64; rv:138.0) Gecko/20100101 Firefox/138.0" version="27.0.9">
  <diagram name="Seite-1" id="DpgOUwNI7-XRcf66CcfA">
    <mxGraphModel dx="826" dy="448" grid="1" gridSize="10" guides="1" tooltips="1" connect="1" arrows="1" fold="1" page="1" pageScale="1" pageWidth="827" pageHeight="1169" math="0" shadow="0">
      <root>
        <mxCell id="0" />
        <mxCell id="1" parent="0" />
        <mxCell id="Tn3Td7QB5pk2EmzLj1tn-18" value="&lt;div&gt;Audio Left&lt;/div&gt;&lt;div&gt;2 bytes&lt;/div&gt;" style="rounded=0;whiteSpace=wrap;html=1;fillColor=#f5f5f5;fontColor=#333333;strokeColor=#666666;" vertex="1" parent="1">
          <mxGeometry x="280" y="520" width="80" height="40" as="geometry" />
        </mxCell>
        <mxCell id="Tn3Td7QB5pk2EmzLj1tn-21" value="&lt;div&gt;Audio Right&lt;/div&gt;&lt;div&gt;2 bytes&lt;/div&gt;" style="rounded=0;whiteSpace=wrap;html=1;fillColor=#C6C6C6;fontColor=#333333;strokeColor=#666666;" vertex="1" parent="1">
          <mxGeometry x="360" y="520" width="80" height="40" as="geometry" />
        </mxCell>
        <mxCell id="Tn3Td7QB5pk2EmzLj1tn-22" value="&lt;div&gt;Audio Left&lt;/div&gt;&lt;div&gt;2 bytes&lt;/div&gt;" style="rounded=0;whiteSpace=wrap;html=1;fillColor=#f5f5f5;fontColor=#333333;strokeColor=#666666;" vertex="1" parent="1">
          <mxGeometry x="440" y="520" width="80" height="40" as="geometry" />
        </mxCell>
        <mxCell id="Tn3Td7QB5pk2EmzLj1tn-23" value="&lt;div&gt;Audio Right&lt;/div&gt;&lt;div&gt;2 bytes&lt;/div&gt;" style="rounded=0;whiteSpace=wrap;html=1;fillColor=#C6C6C6;fontColor=#333333;strokeColor=#666666;" vertex="1" parent="1">
          <mxGeometry x="520" y="520" width="80" height="40" as="geometry" />
        </mxCell>
        <mxCell id="Tn3Td7QB5pk2EmzLj1tn-24" value="&lt;div&gt;Audio Left&lt;/div&gt;&lt;div&gt;2 bytes&lt;/div&gt;" style="rounded=0;whiteSpace=wrap;html=1;fillColor=#f5f5f5;fontColor=#333333;strokeColor=#666666;" vertex="1" parent="1">
          <mxGeometry x="600" y="520" width="80" height="40" as="geometry" />
        </mxCell>
        <mxCell id="Tn3Td7QB5pk2EmzLj1tn-25" value="&lt;div&gt;Audio Right&lt;/div&gt;&lt;div&gt;2 bytes&lt;/div&gt;" style="rounded=0;whiteSpace=wrap;html=1;fillColor=#C6C6C6;fontColor=#333333;strokeColor=#666666;" vertex="1" parent="1">
          <mxGeometry x="680" y="520" width="80" height="40" as="geometry" />
        </mxCell>
      </root>
    </mxGraphModel>
  </diagram>
</mxfile>
